<svg xmlns="http://www.w3.org/2000/svg" viewBox="0 0 106.96 56.87"><defs><style>.cls-1{isolation:isolate;}.cls-2{fill:#e9e1b0;}.cls-3,.cls-6{fill:#fff;}.cls-3{opacity:0.6;mix-blend-mode:soft-light;}.cls-4{fill:#deb88f;}.cls-5{fill:#e52722;}.cls-7{fill:#e52421;}</style></defs><g class="cls-1"><g id="midden_rechts" data-name="midden rechts"><path class="cls-2" d="M39.57,12.31a3.32,3.32,0,0,0-.82,1.35,3.27,3.27,0,0,0,2.16,4.07,3.35,3.35,0,0,0,1.69.06,4.88,4.88,0,1,0,8.89-3.89,3.25,3.25,0,1,0-4.14-5,3.26,3.26,0,0,0-4.9-.62A2.26,2.26,0,0,0,42,8.16a2.48,2.48,0,0,0-2.45,4.15Z" transform="translate(-5.34 -3.19)"/><path class="cls-3" d="M47,9.37c.56.9.81.55,1.41.18A3.82,3.82,0,0,1,50.06,9c1.22,0,1.9,2,1.23,2.92-.34.49-1.06.37-1.24,1s.54,1.18.79,1.66a2.11,2.11,0,0,1-1.17,3c-.54.24-1.1.23-1.61.42-.7.25-.52.63-1.05,1.21a1.72,1.72,0,0,1-2,.43c-.81-.53-.41-1.6-.48-2.37s-.37-1.94-1.27-1.92c-.71,0-1.09.94-2,.41-.7-.41-.46-1.41-.47-2.12a5.83,5.83,0,0,0-.27-2.12c-.35-1-.32-1.6.63-2.11,1.19-.64,1.36-.08,2.22.81a1.9,1.9,0,0,0,2.29.7c.83-.36.53-1,1.14-1.54Z" transform="translate(-5.34 -3.19)"/><path class="cls-4" d="M51,14.2a3.22,3.22,0,0,0,2.1-1.89,3.55,3.55,0,0,0-.35-3A3.37,3.37,0,0,0,48.38,8a3,3,0,0,0-1,.87,1.86,1.86,0,0,0-.46,1.34s.06,0,.09,0c.23-.29.31-.68.52-1a2.57,2.57,0,0,1,.77-.77,3,3,0,0,1,2-.41,3.17,3.17,0,0,1,2.57,3.72,3.23,3.23,0,0,1-1.94,2.33,0,0,0,0,0,0,.06Z" transform="translate(-5.34 -3.19)"/><path class="cls-4" d="M52.06,15.1a4.62,4.62,0,0,0-.38,1.39c-.1.47-.21,1-.35,1.42a4.05,4.05,0,0,1-1.55,2.32,5,5,0,0,1-6.23-1.14,3.08,3.08,0,0,1-.76-1.69,2.88,2.88,0,0,1,0-.88c.07-.35.25-.66.3-1a.09.09,0,0,0-.15-.08,2.31,2.31,0,0,0-.62,1.64,3.18,3.18,0,0,0,.39,1.54,5.08,5.08,0,0,0,2.68,2.21c2.18.83,4.89.25,5.89-2a8.63,8.63,0,0,0,.52-1.73c.06-.32.12-.63.17-.95a3.49,3.49,0,0,0,.12-1,0,0,0,0,0-.07,0Z" transform="translate(-5.34 -3.19)"/><path class="cls-4" d="M40.47,17.24c-1.41-1.08-2.12-3.78-.51-5a2.1,2.1,0,0,1,.72-.35c.29-.08.62,0,.91-.14a.2.2,0,0,0,0-.38,2.27,2.27,0,0,0-1.64.43A2.46,2.46,0,0,0,39,12.93a3.63,3.63,0,0,0,.22,3,3.51,3.51,0,0,0,1.23,1.31s0,0,0,0Z" transform="translate(-5.34 -3.19)"/><path class="cls-4" d="M39,11.19a4.25,4.25,0,0,1,.22-1.32,2.05,2.05,0,0,1,.57-1.1,2.42,2.42,0,0,1,2.25-.15,1.33,1.33,0,0,1,.82.75c.09.26.5.15.42-.11A2.16,2.16,0,0,0,41.09,8a2.47,2.47,0,0,0-1.3.36,1.83,1.83,0,0,0-.72,1.11A3.34,3.34,0,0,0,39,11.2s.07,0,.07,0Z" transform="translate(-5.34 -3.19)"/><path class="cls-4" d="M42.76,8.28a1.75,1.75,0,0,1,.7-.46,3.12,3.12,0,0,1,1-.13,3.26,3.26,0,0,1,1.94.58,1.08,1.08,0,0,1,.28.32c.07.13.05.29.13.42a.22.22,0,0,0,.37,0c.19-.3-.12-.75-.32-1a2.39,2.39,0,0,0-1-.55,3.68,3.68,0,0,0-2.45,0c-.32.13-.72.36-.78.74a.06.06,0,0,0,.1,0Z" transform="translate(-5.34 -3.19)"/><path class="cls-4" d="M44.58,14c.22.07.45.14.68.19s.57.1.86.17a2.07,2.07,0,0,1,1.38.73.81.81,0,0,1,.09.37c0,.15-.09.35,0,.47a.08.08,0,0,0,.08,0c.16-.05.16-.27.17-.41a1.39,1.39,0,0,0-.06-.4,1.24,1.24,0,0,0-.52-.59A4.25,4.25,0,0,0,45.48,14c-.3,0-.6,0-.9-.06,0,0,0,0,0,0Z" transform="translate(-5.34 -3.19)"/><path class="cls-4" d="M47.28,14.51a1.34,1.34,0,0,1-.42-1.45,2,2,0,0,1,.36-.72,1.85,1.85,0,0,1,.28-.28,1.83,1.83,0,0,0,.31-.24c.08-.09,0-.27-.1-.25-.31,0-.58.33-.75.56a2.47,2.47,0,0,0-.42.88,1.55,1.55,0,0,0,.59,1.69c.11.07.25-.1.15-.19Z" transform="translate(-5.34 -3.19)"/><path class="cls-2" d="M21.66,18a3.32,3.32,0,0,0,1.51.48,3.25,3.25,0,0,0,3.12-4.69A4.88,4.88,0,1,0,20.45,6a3.28,3.28,0,0,0-2.05-.9,3.25,3.25,0,0,0-1.8,6.08,3.25,3.25,0,0,0,.53,4.91,2.36,2.36,0,0,0-.08.45A2.48,2.48,0,0,0,21.66,18Z" transform="translate(-5.34 -3.19)"/><path class="cls-3" d="M17.1,11.46c.74-.75.34-.91-.16-1.41a4,4,0,0,1-1-1.51c-.24-1.19,1.48-2.3,2.56-1.87.55.22.61.94,1.24,1s1-.8,1.44-1.16A2.11,2.11,0,0,1,24.4,7a14.94,14.94,0,0,1,.78,1.47c.41.62.74.35,1.42.74A1.72,1.72,0,0,1,27.49,11c-.34.91-1.46.77-2.2,1s-1.8.81-1.58,1.67c.18.69,1.18.85.87,1.85-.24.79-1.27.78-2,1a6.2,6.2,0,0,0-2,.75c-.91.58-1.48.69-2.2-.12-.89-1-.39-1.3.28-2.34a1.92,1.92,0,0,0,.15-2.4c-.55-.71-1.14-.27-1.76-.74Z" transform="translate(-5.34 -3.19)"/><path class="cls-4" d="M20.87,6.47A3.2,3.2,0,0,0,18.5,4.86a3.55,3.55,0,0,0-2.85,1.08,3.37,3.37,0,0,0-.18,4.46,3,3,0,0,0,1.07.78,1.88,1.88,0,0,0,1.41.14s0-.08,0-.09c-.34-.16-.74-.16-1.1-.29a2.48,2.48,0,0,1-.92-.58,3,3,0,0,1-.85-1.8,3.16,3.16,0,0,1,3-3.39A3.22,3.22,0,0,1,20.82,6.5a0,0,0,1,0,.05,0Z" transform="translate(-5.34 -3.19)"/><path class="cls-4" d="M21.49,5.19a5.22,5.22,0,0,0,1.58,0c.53,0,1.06,0,1.59,0A3.67,3.67,0,0,1,27.4,6.68a5.08,5.08,0,0,1-.3,6.15,2.89,2.89,0,0,1-1.33.87,2.65,2.65,0,0,1-.88.13c-.31,0-.62-.09-.94-.06a.09.09,0,0,0,0,.17,2.19,2.19,0,0,0,1.61.24,3.09,3.09,0,0,0,1.4-.64,4.81,4.81,0,0,0,1.6-2.86c.44-2.26-.54-5-3-5.57a7.61,7.61,0,0,0-1.9-.18L22.54,5a4,4,0,0,0-1.05.11,0,0,0,0,0,0,.09Z" transform="translate(-5.34 -3.19)"/><path class="cls-4" d="M26.25,16a3.73,3.73,0,0,1-3,2.13,2.53,2.53,0,0,1-1.63-.35,2.16,2.16,0,0,1-.61-.63c-.19-.3-.23-.67-.42-1a.19.19,0,0,0-.36.1,2.3,2.3,0,0,0,.8,1.49,2.48,2.48,0,0,0,1.33.64,3.66,3.66,0,0,0,2.88-.9,3.43,3.43,0,0,0,1-1.51Z" transform="translate(-5.34 -3.19)"/><path class="cls-4" d="M20.69,18.76a4.5,4.5,0,0,1-1.32.08,2,2,0,0,1-1.2-.29,2.38,2.38,0,0,1-.68-2.14,1.34,1.34,0,0,1,.55-1,.21.21,0,0,0-.21-.37,2.15,2.15,0,0,0-.66,2.48,2.43,2.43,0,0,0,.65,1.17,1.93,1.93,0,0,0,1.27.42,3.21,3.21,0,0,0,1.62-.3s0-.06,0,0Z" transform="translate(-5.34 -3.19)"/><path class="cls-4" d="M17,15.81a1.76,1.76,0,0,1-.61-.57,3.62,3.62,0,0,1-.26-3,1.21,1.21,0,0,1,.25-.37c.12-.1.28-.12.39-.23a.22.22,0,0,0-.1-.36c-.32-.11-.7.3-.85.54A2.41,2.41,0,0,0,15.52,13a3.65,3.65,0,0,0,.56,2.39c.2.27.52.61.9.58.05,0,.08-.08,0-.11Z" transform="translate(-5.34 -3.19)"/><path class="cls-4" d="M22.12,12.73c0-.53,0-1.05,0-1.58a2.12,2.12,0,0,1,.38-1.5.79.79,0,0,1,.34-.2c.13,0,.37,0,.46-.1a.09.09,0,0,0,0-.1c-.14-.22-.63,0-.8.08A1.15,1.15,0,0,0,22,10a4.18,4.18,0,0,0-.1,1.86c0,.31.13.61.16.92Z" transform="translate(-5.34 -3.19)"/><path class="cls-4" d="M22,10a1.33,1.33,0,0,1-1.31.74,1.9,1.9,0,0,1-.78-.18,1.65,1.65,0,0,1-.36-.22c-.1-.07-.18-.19-.3-.24a.14.14,0,0,0-.21.16.75.75,0,0,0,.31.37,2.38,2.38,0,0,0,.41.23,2.43,2.43,0,0,0,1,.2,1.54,1.54,0,0,0,1.5-1c0-.13-.16-.22-.22-.1Z" transform="translate(-5.34 -3.19)"/><path class="cls-2" d="M21.06,15a3.25,3.25,0,0,0,3,5.47A4.88,4.88,0,1,0,33,16.58a3.25,3.25,0,1,0-4.15-4.94,3.25,3.25,0,0,0-4.9-.62,3.25,3.25,0,0,0-.43-.18A2.48,2.48,0,0,0,21.06,15Z" transform="translate(-5.34 -3.19)"/><path class="cls-3" d="M28.46,12.06c.55.9.8.55,1.41.18a3.82,3.82,0,0,1,1.69-.57c1.21,0,1.89,2,1.23,2.91-.34.49-1.06.38-1.25,1s.54,1.19.8,1.67a2.12,2.12,0,0,1-1.18,3c-.54.24-1.1.23-1.61.41-.7.25-.51.64-1.05,1.21a1.71,1.71,0,0,1-2,.44c-.81-.53-.41-1.6-.48-2.37S25.66,18,24.77,18c-.72,0-1.1.94-2,.41-.71-.42-.46-1.41-.48-2.12A6.06,6.06,0,0,0,22,14.16c-.36-1-.33-1.6.62-2.11,1.2-.64,1.36-.08,2.22.81.66.67,1.35,1.12,2.29.7s.53-1.05,1.14-1.55Z" transform="translate(-5.34 -3.19)"/><path class="cls-4" d="M32.44,16.88A3.2,3.2,0,0,0,34.54,15a3.55,3.55,0,0,0-.34-3,3.38,3.38,0,0,0-4.33-1.26,3.12,3.12,0,0,0-1,.87,1.89,1.89,0,0,0-.46,1.34.06.06,0,0,0,.09,0c.23-.29.32-.68.52-1a2.57,2.57,0,0,1,.77-.77,3,3,0,0,1,2-.41,3.17,3.17,0,0,1,2.57,3.71,3.21,3.21,0,0,1-1.93,2.34s0,.06,0,.05Z" transform="translate(-5.34 -3.19)"/><path class="cls-4" d="M33.55,17.79a4.62,4.62,0,0,0-.37,1.38c-.11.48-.22,1-.36,1.43a4,4,0,0,1-1.55,2.31A5,5,0,0,1,25,21.78a3.18,3.18,0,0,1-.76-1.69,2.66,2.66,0,0,1,0-.89c.07-.34.24-.65.29-1a.09.09,0,0,0-.15-.09,2.3,2.3,0,0,0-.61,1.65,3.19,3.19,0,0,0,.38,1.54,5.11,5.11,0,0,0,2.69,2.21c2.18.83,4.88.25,5.88-2a8.63,8.63,0,0,0,.52-1.73l.18-1a4.21,4.21,0,0,0,.12-1s-.06-.06-.08,0Z" transform="translate(-5.34 -3.19)"/><path class="cls-4" d="M22,19.93c-1.41-1.08-2.12-3.78-.5-5a2.05,2.05,0,0,1,.71-.35c.29-.09.62-.05.91-.15a.19.19,0,0,0,0-.37,2.31,2.31,0,0,0-1.64.42,2.6,2.6,0,0,0-.94,1.16,3.6,3.6,0,0,0,.23,3A3.32,3.32,0,0,0,22,19.94s0,0,0,0Z" transform="translate(-5.34 -3.19)"/><path class="cls-4" d="M20.53,13.87a4.55,4.55,0,0,1,.22-1.31,2,2,0,0,1,.58-1.1,2.4,2.4,0,0,1,2.24-.15,1.37,1.37,0,0,1,.83.75c.08.26.49.15.41-.11a2.16,2.16,0,0,0-2.23-1.22,2.55,2.55,0,0,0-1.29.35,1.81,1.81,0,0,0-.72,1.12,3.2,3.2,0,0,0-.1,1.68s.06,0,.06,0Z" transform="translate(-5.34 -3.19)"/><path class="cls-4" d="M24.25,11a1.75,1.75,0,0,1,.7-.46,2.9,2.9,0,0,1,1-.13A3.19,3.19,0,0,1,27.9,11a1.18,1.18,0,0,1,.28.31c.08.14.05.3.13.43a.23.23,0,0,0,.38,0c.18-.3-.13-.76-.33-1a2.46,2.46,0,0,0-1-.56,3.68,3.68,0,0,0-2.45,0c-.31.12-.72.36-.78.73,0,.06.05.11.1.06Z" transform="translate(-5.34 -3.19)"/><path class="cls-4" d="M26.07,16.66a5.23,5.23,0,0,0,.68.18c.29.06.58.11.86.18a2.07,2.07,0,0,1,1.38.73.93.93,0,0,1,.1.37c0,.15-.1.34,0,.47a.08.08,0,0,0,.08,0c.16-.05.17-.27.17-.41a.89.89,0,0,0-.06-.4,1.18,1.18,0,0,0-.51-.59A4.2,4.2,0,0,0,27,16.7c-.3,0-.6,0-.9-.06,0,0,0,0,0,0Z" transform="translate(-5.34 -3.19)"/><path class="cls-4" d="M28.77,17.19a1.33,1.33,0,0,1-.42-1.44,2,2,0,0,1,.37-.72,1.79,1.79,0,0,1,.27-.28,3.92,3.92,0,0,0,.32-.25c.07-.08,0-.26-.11-.25-.31,0-.57.34-.75.57a2.22,2.22,0,0,0-.41.88,1.53,1.53,0,0,0,.58,1.69c.12.07.26-.11.15-.2Z" transform="translate(-5.34 -3.19)"/><path class="cls-2" d="M19.4,21.05a3.2,3.2,0,0,0,1.5.48,3.25,3.25,0,0,0,3.46-3A3.3,3.3,0,0,0,24,16.84a4.88,4.88,0,1,0-5.84-7.76,3.33,3.33,0,0,0-2.05-.9,3.25,3.25,0,0,0-3.45,3,3.22,3.22,0,0,0,1.65,3,3.2,3.2,0,0,0-.88,2,3.24,3.24,0,0,0,1.4,2.89,3.4,3.4,0,0,0-.07.46,2.48,2.48,0,0,0,4.61,1.42Z" transform="translate(-5.34 -3.19)"/><path class="cls-3" d="M14.83,14.54c.75-.75.35-.91-.15-1.42a3.88,3.88,0,0,1-.95-1.51c-.24-1.19,1.48-2.29,2.56-1.87.55.22.61.95,1.24,1s1-.79,1.43-1.15a2.11,2.11,0,0,1,3.18.45c.36.47.48,1,.78,1.47.41.62.74.36,1.42.74a1.72,1.72,0,0,1,.88,1.84c-.33.91-1.46.77-2.19,1s-1.81.8-1.58,1.67c.18.69,1.17.84.86,1.85-.24.78-1.26.77-1.95.95a5.9,5.9,0,0,0-2,.75c-.91.58-1.48.68-2.2-.13-.9-1-.39-1.3.27-2.34a1.89,1.89,0,0,0,.16-2.39c-.55-.72-1.14-.27-1.77-.75Z" transform="translate(-5.34 -3.19)"/><path class="cls-4" d="M18.6,9.55a3.17,3.17,0,0,0-2.36-1.61A3.51,3.51,0,0,0,13.39,9a3.36,3.36,0,0,0-.18,4.46,2.93,2.93,0,0,0,1.07.77,1.88,1.88,0,0,0,1.41.14.05.05,0,0,0,0-.09c-.34-.16-.75-.15-1.1-.28a2.76,2.76,0,0,1-.92-.58,2.9,2.9,0,0,1-.85-1.81,3.17,3.17,0,0,1,3-3.39,3.26,3.26,0,0,1,2.77,1.34,0,0,0,1,0,0,0Z" transform="translate(-5.34 -3.19)"/><path class="cls-4" d="M19.23,8.26a5.22,5.22,0,0,0,1.58,0,13.83,13.83,0,0,1,1.58,0,3.68,3.68,0,0,1,2.75,1.41,5.09,5.09,0,0,1-.3,6.15,3,3,0,0,1-1.33.88,3.29,3.29,0,0,1-.88.13c-.32,0-.63-.09-.94-.06a.09.09,0,0,0-.05.17,2.32,2.32,0,0,0,1.62.24,3,3,0,0,0,1.39-.64,4.81,4.81,0,0,0,1.61-2.86c.44-2.27-.55-5-3-5.58A7.6,7.6,0,0,0,21.39,8l-1.12.05a3.61,3.61,0,0,0-1,.12,0,0,0,0,0,0,.08Z" transform="translate(-5.34 -3.19)"/><path class="cls-4" d="M24,19a3.77,3.77,0,0,1-3,2.13,2.51,2.51,0,0,1-1.63-.36,2,2,0,0,1-.61-.62c-.2-.3-.24-.67-.42-1a.19.19,0,0,0-.36.1,2.26,2.26,0,0,0,.8,1.5,2.55,2.55,0,0,0,1.33.64A3.67,3.67,0,0,0,23,20.55a3.55,3.55,0,0,0,1-1.5s0,0,0,0Z" transform="translate(-5.34 -3.19)"/><path class="cls-4" d="M18.43,21.83a4.5,4.5,0,0,1-1.32.09,2.08,2.08,0,0,1-1.2-.29,2.43,2.43,0,0,1-.69-2.15,1.37,1.37,0,0,1,.56-1,.22.22,0,0,0-.22-.37,2.18,2.18,0,0,0-.66,2.49,2.45,2.45,0,0,0,.66,1.16,1.81,1.81,0,0,0,1.27.42,3.21,3.21,0,0,0,1.62-.29s0-.07,0-.06Z" transform="translate(-5.34 -3.19)"/><path class="cls-4" d="M14.74,18.88a1.79,1.79,0,0,1-.6-.56,3.09,3.09,0,0,1-.37-1,3.26,3.26,0,0,1,.11-2,1.11,1.11,0,0,1,.25-.36c.12-.11.28-.12.38-.23a.22.22,0,0,0-.09-.36c-.33-.11-.7.29-.85.53A2.49,2.49,0,0,0,13.26,16a3.65,3.65,0,0,0,.56,2.39c.2.28.52.61.89.58a.06.06,0,0,0,0-.11Z" transform="translate(-5.34 -3.19)"/><path class="cls-4" d="M19.86,15.8c0-.53,0-1.05,0-1.58a2.14,2.14,0,0,1,.38-1.5.77.77,0,0,1,.34-.19c.13,0,.37,0,.46-.1a.11.11,0,0,0,0-.11c-.14-.22-.63,0-.8.08a1.16,1.16,0,0,0-.46.63,4.17,4.17,0,0,0-.1,1.86c0,.3.12.6.16.91Z" transform="translate(-5.34 -3.19)"/><path class="cls-4" d="M19.75,13.05a1.34,1.34,0,0,1-1.31.74,2,2,0,0,1-.78-.19,2.5,2.5,0,0,1-.35-.21,1.66,1.66,0,0,0-.3-.24c-.12-.05-.25,0-.21.16a.64.64,0,0,0,.31.36,1.91,1.91,0,0,0,.41.24,2.43,2.43,0,0,0,1,.2,1.55,1.55,0,0,0,1.5-1c0-.13-.17-.21-.23-.09Z" transform="translate(-5.34 -3.19)"/><path class="cls-2" d="M40.57,15.31a3.24,3.24,0,0,0,1.34,5.41,3.11,3.11,0,0,0,1.68.06,4.88,4.88,0,0,0,9.3-.09,4.85,4.85,0,0,0-.4-3.8,3.17,3.17,0,0,0,1.35-1.78A3.25,3.25,0,0,0,48.34,12a3.2,3.2,0,0,0-1.76-1.32,3.24,3.24,0,0,0-3.13.7,3.25,3.25,0,0,0-.43-.18,2.48,2.48,0,0,0-2.45,4.16Z" transform="translate(-5.34 -3.19)"/><path class="cls-3" d="M48,12.37c.56.9.81.55,1.41.18A4,4,0,0,1,51.06,12c1.22,0,1.89,2,1.23,2.92-.34.49-1.06.38-1.24,1s.54,1.19.79,1.67a2.11,2.11,0,0,1-1.17,3,15.34,15.34,0,0,1-1.61.42c-.7.25-.52.64-1.05,1.21a1.73,1.73,0,0,1-2,.44c-.81-.54-.41-1.6-.49-2.37s-.37-1.95-1.26-1.93c-.71,0-1.09.95-2,.42-.71-.42-.46-1.41-.47-2.12a5.88,5.88,0,0,0-.27-2.13c-.35-1-.32-1.59.63-2.1,1.19-.64,1.36-.08,2.22.8a1.89,1.89,0,0,0,2.29.71c.83-.37.53-1,1.14-1.55Z" transform="translate(-5.34 -3.19)"/><path class="cls-4" d="M51.94,17.19A3.15,3.15,0,0,0,54,15.3a3.51,3.51,0,0,0-.34-3A3.36,3.36,0,0,0,49.38,11a2.88,2.88,0,0,0-1,.86,1.89,1.89,0,0,0-.47,1.34s.07.06.09,0c.23-.29.32-.68.53-1a2.54,2.54,0,0,1,.77-.76,2.9,2.9,0,0,1,2-.41,3.16,3.16,0,0,1,2.58,3.71,3.26,3.26,0,0,1-1.94,2.34s0,.06,0,.05Z" transform="translate(-5.34 -3.19)"/><path class="cls-4" d="M53.05,18.09a5.1,5.1,0,0,0-.37,1.39c-.1.48-.21,1-.35,1.42a4,4,0,0,1-1.56,2.32,5,5,0,0,1-6.22-1.13,3.11,3.11,0,0,1-.76-1.7,2.89,2.89,0,0,1,0-.88c.07-.34.25-.66.3-1a.09.09,0,0,0-.15-.09,2.35,2.35,0,0,0-.62,1.65,3.14,3.14,0,0,0,.39,1.53,5,5,0,0,0,2.68,2.21c2.18.84,4.89.26,5.88-2a8.22,8.22,0,0,0,.53-1.73c.06-.32.12-.64.17-1a3.45,3.45,0,0,0,.12-1,0,0,0,0,0-.08,0Z" transform="translate(-5.34 -3.19)"/><path class="cls-4" d="M41.46,20.24c-1.4-1.09-2.11-3.78-.5-5a2.17,2.17,0,0,1,.71-.36c.3-.08.63,0,.91-.14a.2.2,0,0,0,0-.38,2.33,2.33,0,0,0-1.64.43A2.5,2.5,0,0,0,40,15.92a3.62,3.62,0,0,0,.22,3,3.41,3.41,0,0,0,1.23,1.3s0,0,0,0Z" transform="translate(-5.34 -3.19)"/><path class="cls-4" d="M40,14.18a4.51,4.51,0,0,1,.23-1.31,2.08,2.08,0,0,1,.57-1.11,2.45,2.45,0,0,1,2.25-.15,1.32,1.32,0,0,1,.82.76c.09.26.5.15.42-.12A2.15,2.15,0,0,0,42.09,11a2.56,2.56,0,0,0-1.3.35,1.85,1.85,0,0,0-.72,1.12,3.3,3.3,0,0,0-.1,1.68,0,0,0,0,0,.06,0Z" transform="translate(-5.34 -3.19)"/><path class="cls-4" d="M43.76,11.28a1.93,1.93,0,0,1,.69-.47,3.53,3.53,0,0,1,1-.13,3.3,3.3,0,0,1,1.93.58,1.1,1.1,0,0,1,.29.32c.07.14.05.3.13.42a.22.22,0,0,0,.37,0c.19-.29-.12-.75-.32-.95a2.5,2.5,0,0,0-1-.56,3.71,3.71,0,0,0-2.44,0c-.32.13-.73.37-.78.74a.06.06,0,0,0,.1.06Z" transform="translate(-5.34 -3.19)"/><path class="cls-4" d="M45.57,17c.23.07.45.14.69.19l.86.17a2.06,2.06,0,0,1,1.37.74.65.65,0,0,1,.1.36c0,.15-.09.35,0,.48a.07.07,0,0,0,.08,0c.15-.05.16-.28.17-.41a1.4,1.4,0,0,0-.06-.41,1.22,1.22,0,0,0-.52-.58A4.27,4.27,0,0,0,46.48,17c-.3,0-.6,0-.9-.05,0,0,0,0,0,0Z" transform="translate(-5.34 -3.19)"/><path class="cls-4" d="M48.28,17.5a1.31,1.31,0,0,1-.42-1.44,2.08,2.08,0,0,1,.36-.73,1.72,1.72,0,0,1,.27-.27,2.72,2.72,0,0,0,.32-.25c.08-.09,0-.26-.1-.25a1.31,1.31,0,0,0-.76.57,2.37,2.37,0,0,0-.41.88,1.53,1.53,0,0,0,.59,1.68c.11.08.25-.1.15-.19Z" transform="translate(-5.34 -3.19)"/><path class="cls-2" d="M41.17,18.28a3.21,3.21,0,0,0,1.5.49,3.27,3.27,0,0,0,3.46-3,3.17,3.17,0,0,0-.34-1.65A4.88,4.88,0,1,0,40,6.32a3.17,3.17,0,0,0-2-.9,3.25,3.25,0,0,0-1.81,6.07,3.27,3.27,0,0,0-.87,2,3.22,3.22,0,0,0,1.4,2.88,2.32,2.32,0,0,0-.07.46,2.48,2.48,0,0,0,4.61,1.42Z" transform="translate(-5.34 -3.19)"/><path class="cls-3" d="M36.6,11.77c.75-.75.35-.91-.15-1.41a3.84,3.84,0,0,1-1-1.51C35.25,7.65,37,6.55,38.05,7c.56.22.61,1,1.24,1s1-.8,1.44-1.16a2.11,2.11,0,0,1,3.18.45c.36.47.48,1,.78,1.48.4.62.73.35,1.42.74A1.72,1.72,0,0,1,47,11.3c-.33.91-1.46.77-2.19,1S43,13.13,43.22,14c.18.69,1.17.84.86,1.85-.24.78-1.26.78-1.95.95a6,6,0,0,0-2,.75c-.9.58-1.47.68-2.19-.12-.9-1-.39-1.3.27-2.34a1.92,1.92,0,0,0,.16-2.4c-.55-.72-1.14-.27-1.77-.75Z" transform="translate(-5.34 -3.19)"/><path class="cls-4" d="M40.37,6.78A3.17,3.17,0,0,0,38,5.17a3.51,3.51,0,0,0-2.85,1.08A3.37,3.37,0,0,0,35,10.71a2.94,2.94,0,0,0,1.08.77,1.88,1.88,0,0,0,1.41.15.07.07,0,0,0,0-.1c-.34-.16-.75-.15-1.1-.28a2.65,2.65,0,0,1-.93-.58,2.91,2.91,0,0,1-.84-1.8,3.16,3.16,0,0,1,3-3.39,3.2,3.2,0,0,1,2.76,1.33s.07,0,0,0Z" transform="translate(-5.34 -3.19)"/><path class="cls-4" d="M41,5.49a5.29,5.29,0,0,0,1.59,0,13.89,13.89,0,0,1,1.58,0A3.68,3.68,0,0,1,46.91,7a5.09,5.09,0,0,1-.3,6.15,3,3,0,0,1-1.33.88,2.93,2.93,0,0,1-.88.13c-.32,0-.63-.09-.94-.06a.09.09,0,0,0-.05.17,2.26,2.26,0,0,0,1.62.24,3,3,0,0,0,1.39-.64A4.81,4.81,0,0,0,48,11c.44-2.27-.55-5-3-5.58a7.52,7.52,0,0,0-1.9-.17L42,5.29a4.13,4.13,0,0,0-1,.12s0,.07,0,.08Z" transform="translate(-5.34 -3.19)"/><path class="cls-4" d="M45.76,16.27a3.74,3.74,0,0,1-3,2.13A2.45,2.45,0,0,1,41.16,18a2,2,0,0,1-.62-.62c-.19-.3-.23-.67-.41-1a.19.19,0,0,0-.36.1,2.26,2.26,0,0,0,.8,1.5,2.55,2.55,0,0,0,1.33.64,3.61,3.61,0,0,0,2.87-.91,3.4,3.4,0,0,0,1-1.5s0,0,0,0Z" transform="translate(-5.34 -3.19)"/><path class="cls-4" d="M40.2,19.07a4.5,4.5,0,0,1-1.32.08,2.08,2.08,0,0,1-1.2-.29A2.4,2.4,0,0,1,37,16.71a1.37,1.37,0,0,1,.56-1,.22.22,0,0,0-.22-.37,2.18,2.18,0,0,0-.66,2.49A2.45,2.45,0,0,0,37.33,19a1.87,1.87,0,0,0,1.27.43,3.23,3.23,0,0,0,1.62-.3,0,0,0,0,0,0-.05Z" transform="translate(-5.34 -3.19)"/><path class="cls-4" d="M36.51,16.11a1.92,1.92,0,0,1-.61-.56,3.07,3.07,0,0,1-.36-1,3.19,3.19,0,0,1,.11-2,1.11,1.11,0,0,1,.25-.36c.11-.1.28-.12.38-.23a.22.22,0,0,0-.09-.36c-.33-.11-.7.3-.85.54A2.56,2.56,0,0,0,35,13.26a3.65,3.65,0,0,0,.57,2.39c.2.27.52.6.89.57a.06.06,0,0,0,0-.11Z" transform="translate(-5.34 -3.19)"/><path class="cls-4" d="M41.62,13c0-.53,0-1,0-1.57A2.11,2.11,0,0,1,42,10a.81.81,0,0,1,.34-.19c.13,0,.36,0,.45-.1a.08.08,0,0,0,0-.1c-.14-.22-.63,0-.8.07a1.23,1.23,0,0,0-.47.63,4.31,4.31,0,0,0-.09,1.86c0,.31.12.61.16.91Z" transform="translate(-5.34 -3.19)"/><path class="cls-4" d="M41.52,10.28a1.33,1.33,0,0,1-1.31.74,1.91,1.91,0,0,1-.78-.19,1.41,1.41,0,0,1-.35-.21,1.43,1.43,0,0,0-.31-.24.14.14,0,0,0-.21.16.76.76,0,0,0,.32.37,1.81,1.81,0,0,0,.41.23,2.42,2.42,0,0,0,1,.2,1.53,1.53,0,0,0,1.5-1c0-.13-.16-.22-.22-.1Z" transform="translate(-5.34 -3.19)"/><path class="cls-2" d="M29.8,16.44a3.21,3.21,0,0,0,1.51.48,3.24,3.24,0,0,0,3.45-3,3.3,3.3,0,0,0-.33-1.66,4.88,4.88,0,1,0-5.84-7.76,3.25,3.25,0,0,0-5.5,2.14,3.24,3.24,0,0,0,1.65,3,3.25,3.25,0,0,0,.53,4.91,2.33,2.33,0,0,0-.08.46,2.48,2.48,0,0,0,4.61,1.42Z" transform="translate(-5.34 -3.19)"/><path class="cls-3" d="M25.24,9.93c.74-.75.34-.92-.16-1.42A3.86,3.86,0,0,1,24.14,7c-.25-1.19,1.47-2.29,2.55-1.87.55.22.61,1,1.24,1S29,5.32,29.37,5a2.1,2.1,0,0,1,3.17.45c.37.47.48,1,.78,1.47.41.62.74.36,1.42.74a1.72,1.72,0,0,1,.89,1.84c-.34.91-1.46.77-2.2,1s-1.8.8-1.58,1.67c.18.69,1.18.84.87,1.85-.24.78-1.27.77-2,.95a6,6,0,0,0-2,.75c-.91.58-1.48.68-2.2-.13-.89-1-.39-1.3.28-2.34A1.9,1.9,0,0,0,27,10.84c-.55-.72-1.14-.27-1.76-.75Z" transform="translate(-5.34 -3.19)"/><path class="cls-4" d="M29,4.94a3.2,3.2,0,0,0-2.37-1.61,3.51,3.51,0,0,0-2.85,1.08,3.37,3.37,0,0,0-.18,4.46,2.93,2.93,0,0,0,1.07.77,1.88,1.88,0,0,0,1.41.14s0-.07,0-.09c-.34-.16-.74-.15-1.1-.28a2.76,2.76,0,0,1-.92-.58A3,3,0,0,1,23.22,7a3.17,3.17,0,0,1,3-3.39A3.25,3.25,0,0,1,29,5s.07,0,.05,0Z" transform="translate(-5.34 -3.19)"/><path class="cls-4" d="M29.63,3.65a5.56,5.56,0,0,0,1.58,0,14.07,14.07,0,0,1,1.59,0,3.62,3.62,0,0,1,2.74,1.41,5.08,5.08,0,0,1-.3,6.15,3,3,0,0,1-1.33.88,3.29,3.29,0,0,1-.88.13c-.31,0-.62-.09-.94-.06a.09.09,0,0,0,0,.17,2.3,2.3,0,0,0,1.61.24,3.09,3.09,0,0,0,1.4-.64,4.84,4.84,0,0,0,1.6-2.86c.44-2.27-.54-5-3-5.58a7.16,7.16,0,0,0-1.9-.17l-1.11.05a3.64,3.64,0,0,0-1.05.12,0,0,0,0,0,0,.08Z" transform="translate(-5.34 -3.19)"/><path class="cls-4" d="M34.39,14.43a3.77,3.77,0,0,1-3,2.13,2.54,2.54,0,0,1-1.63-.36,2.16,2.16,0,0,1-.61-.63c-.19-.3-.23-.66-.42-1a.19.19,0,0,0-.36.1,2.33,2.33,0,0,0,.8,1.5,2.55,2.55,0,0,0,1.33.64,3.67,3.67,0,0,0,2.88-.91,3.46,3.46,0,0,0,1-1.5s0,0,0,0Z" transform="translate(-5.34 -3.19)"/><path class="cls-4" d="M28.83,17.22a4.5,4.5,0,0,1-1.32.09,2.08,2.08,0,0,1-1.2-.29,2.39,2.39,0,0,1-.68-2.15,1.34,1.34,0,0,1,.55-1A.21.21,0,0,0,26,13.5,2.16,2.16,0,0,0,25.31,16,2.35,2.35,0,0,0,26,17.15a1.83,1.83,0,0,0,1.27.42,3.21,3.21,0,0,0,1.62-.29,0,0,0,0,0,0-.06Z" transform="translate(-5.34 -3.19)"/><path class="cls-4" d="M25.15,14.27a1.67,1.67,0,0,1-.61-.57,3.3,3.3,0,0,1-.37-1,3.33,3.33,0,0,1,.11-2,1.05,1.05,0,0,1,.25-.36c.12-.11.28-.12.39-.23a.22.22,0,0,0-.1-.36c-.32-.11-.7.29-.85.53a2.49,2.49,0,0,0-.31,1.09,3.65,3.65,0,0,0,.56,2.39,1.13,1.13,0,0,0,.9.58.06.06,0,0,0,0-.11Z" transform="translate(-5.34 -3.19)"/><path class="cls-4" d="M30.26,11.19c0-.53,0-1,0-1.58a2.13,2.13,0,0,1,.38-1.5A.77.77,0,0,1,31,7.92c.13,0,.37,0,.46-.1a.11.11,0,0,0,0-.11c-.14-.22-.63,0-.8.08a1.21,1.21,0,0,0-.46.63,4.17,4.17,0,0,0-.1,1.86c0,.3.13.6.16.91Z" transform="translate(-5.34 -3.19)"/><path class="cls-4" d="M30.16,8.44a1.34,1.34,0,0,1-1.31.74A1.91,1.91,0,0,1,28.07,9a2.12,2.12,0,0,1-.36-.21,1.81,1.81,0,0,0-.3-.25.15.15,0,0,0-.21.17.73.73,0,0,0,.31.36,2.44,2.44,0,0,0,.41.24,2.26,2.26,0,0,0,1,.19,1.52,1.52,0,0,0,1.5-1c0-.13-.16-.22-.22-.09Z" transform="translate(-5.34 -3.19)"/><path class="cls-2" d="M15.44,24.32a3.25,3.25,0,0,0,2.87-5.56,4.88,4.88,0,1,0-8.18-5.24,3.25,3.25,0,1,0-1.8,6.2,3.18,3.18,0,0,0-.12,2.2,3.24,3.24,0,0,0,2.32,2.22,2.42,2.42,0,0,0,.1.45,2.47,2.47,0,0,0,4.81-.27Z" transform="translate(-5.34 -3.19)"/><path class="cls-3" d="M8.89,19.8c.44-1,0-1-.64-1.27a3.78,3.78,0,0,1-1.41-1.08c-.65-1,.58-2.67,1.74-2.65.6,0,.9.68,1.5.49s.69-1.11.95-1.58A2.1,2.1,0,0,1,14.16,13c.51.31.81.79,1.25,1.11.59.44.81.08,1.59.2.63.1,1.46.67,1.46,1.41,0,1-1.1,1.23-1.7,1.72s-1.41,1.39-.89,2.12S17.26,20,17.32,21c.05.82-.91,1.17-1.5,1.57A6.37,6.37,0,0,0,14.2,24c-.64.86-1.14,1.16-2.1.65-1.19-.63-.82-1.08-.56-2.29.2-.92.19-1.74-.69-2.29s-1.16.14-1.91-.09Z" transform="translate(-5.34 -3.19)"/><path class="cls-4" d="M10.69,13.82a3.23,3.23,0,0,0-2.47-.76,3.49,3.49,0,0,0-2.29,1.5,3.39,3.39,0,0,0,.92,4.73,2.9,2.9,0,0,0,1.31.43,1.93,1.93,0,0,0,1.48-.35s0-.08,0-.09a2.68,2.68,0,0,0-.56.07,3,3,0,0,1-.67,0,2.6,2.6,0,0,1-1.12-.3,3,3,0,0,1-1.41-1.68,3.19,3.19,0,0,1,2.1-4,3.28,3.28,0,0,1,2.71.42s.06,0,0,0Z" transform="translate(-5.34 -3.19)"/><path class="cls-4" d="M10.82,12.39a3,3,0,0,0,.81-.25l.91-.35a10.14,10.14,0,0,1,1.7-.53,3.57,3.57,0,0,1,3.4,1.11,5,5,0,0,1,1,5.52,2.91,2.91,0,0,1-1,1.11,3,3,0,0,1-.7.34,6,6,0,0,0-.82.25c-.08,0-.05.14,0,.16a2.17,2.17,0,0,0,1.52-.29,3,3,0,0,0,1.07-1,4.55,4.55,0,0,0,.66-2.95c-.2-2.29-1.93-4.78-4.46-4.67a6.53,6.53,0,0,0-2,.48c-.36.14-.71.29-1.06.45a4.15,4.15,0,0,0-1,.52s0,.07,0,.07Z" transform="translate(-5.34 -3.19)"/><path class="cls-4" d="M19,20.83a3.75,3.75,0,0,1-2,3,2.45,2.45,0,0,1-1.66.23,2,2,0,0,1-.76-.35c-.3-.21-.46-.54-.74-.76-.13-.11-.39,0-.32.19a2.3,2.3,0,0,0,1.26,1.13,2.52,2.52,0,0,0,1.46.15,3.65,3.65,0,0,0,2.41-1.86,3.48,3.48,0,0,0,.41-1.76Z" transform="translate(-5.34 -3.19)"/><path class="cls-4" d="M14.8,25.39a4.12,4.12,0,0,1-1.13.51,2.44,2.44,0,0,1-1.19.2A2.3,2.3,0,0,1,11,24.35a1.38,1.38,0,0,1,.14-1.16c.17-.21-.13-.52-.3-.3a2.17,2.17,0,0,0,.27,2.61,2.46,2.46,0,0,0,1.06.85,2,2,0,0,0,1.32-.09,3.21,3.21,0,0,0,1.36-.82s0-.08,0-.05Z" transform="translate(-5.34 -3.19)"/><path class="cls-4" d="M10.32,23.91a2,2,0,0,1-.77-.32,3,3,0,0,1-.66-.76,3.32,3.32,0,0,1-.61-1.95,1.12,1.12,0,0,1,.1-.4c.07-.13.22-.21.28-.34a.22.22,0,0,0-.19-.32c-.35,0-.57.49-.62.79a2.49,2.49,0,0,0,.08,1.15,3.75,3.75,0,0,0,1.37,2,1.13,1.13,0,0,0,1,.22.06.06,0,0,0,0-.11Z" transform="translate(-5.34 -3.19)"/><path class="cls-4" d="M14,19.24c-.2-.67-.53-1.28-.72-1.95a1.85,1.85,0,0,1,0-1,.73.73,0,0,1,.26-.36c.13-.1.36-.13.42-.29s0-.07,0-.09-.4.07-.52.17a1,1,0,0,0-.3.37,1.67,1.67,0,0,0,0,1.06,6.62,6.62,0,0,0,.43,1.15c.16.33.37.61.53.93,0,0,0,0,0,0Z" transform="translate(-5.34 -3.19)"/><path class="cls-4" d="M13,16.71a1.34,1.34,0,0,1-1,1.14,2.22,2.22,0,0,1-.81.09,1.61,1.61,0,0,1-.38-.08,1.15,1.15,0,0,0-.4-.12.14.14,0,0,0-.12.21c.11.21.46.27.66.3a2.21,2.21,0,0,0,.77,0A1.9,1.9,0,0,0,13,17.51a1.26,1.26,0,0,0,.24-.8c0-.15-.22-.15-.24,0Z" transform="translate(-5.34 -3.19)"/><path class="cls-2" d="M35.08,22.81a3.2,3.2,0,0,0,1.5.48,3.25,3.25,0,0,0,3.46-3,3.3,3.3,0,0,0-.33-1.66,4.88,4.88,0,1,0-5.84-7.76A3.25,3.25,0,0,0,28.37,13,3.22,3.22,0,0,0,30,16a3.25,3.25,0,0,0,.53,4.91,2.33,2.33,0,0,0-.08.46,2.48,2.48,0,0,0,4.61,1.42Z" transform="translate(-5.34 -3.19)"/><path class="cls-3" d="M30.52,16.3c.74-.75.34-.92-.16-1.42a3.88,3.88,0,0,1-.95-1.51c-.24-1.19,1.48-2.29,2.56-1.87.55.22.61.95,1.24,1s1-.79,1.44-1.15a2.1,2.1,0,0,1,3.17.45c.37.47.48,1,.78,1.47.41.62.74.36,1.42.74a1.7,1.7,0,0,1,.88,1.84c-.33.91-1.46.77-2.19,1s-1.8.8-1.58,1.67c.18.69,1.17.84.87,1.85-.25.78-1.27.77-2,.95a6,6,0,0,0-2,.75c-.91.58-1.48.68-2.2-.13-.89-1-.39-1.3.28-2.34a1.9,1.9,0,0,0,.15-2.39c-.55-.72-1.14-.27-1.77-.75Z" transform="translate(-5.34 -3.19)"/><path class="cls-4" d="M34.29,11.31A3.2,3.2,0,0,0,31.92,9.7a3.54,3.54,0,0,0-2.85,1.07,3.37,3.37,0,0,0-.18,4.47A2.93,2.93,0,0,0,30,16a1.88,1.88,0,0,0,1.41.14s0-.07,0-.09c-.34-.16-.74-.15-1.1-.28a2.76,2.76,0,0,1-.92-.58,3,3,0,0,1-.85-1.81,3.17,3.17,0,0,1,3-3.39,3.26,3.26,0,0,1,2.77,1.34s.06,0,0,0Z" transform="translate(-5.34 -3.19)"/><path class="cls-4" d="M34.91,10a5.56,5.56,0,0,0,1.58,0,14.07,14.07,0,0,1,1.59,0,3.64,3.64,0,0,1,2.74,1.41,5.09,5.09,0,0,1-.3,6.15,3,3,0,0,1-1.33.88,3.29,3.29,0,0,1-.88.13c-.31,0-.63-.09-.94-.06a.09.09,0,0,0,0,.17,2.33,2.33,0,0,0,1.62.24,3.09,3.09,0,0,0,1.4-.64,4.84,4.84,0,0,0,1.6-2.86c.44-2.27-.54-5-3-5.58a7.16,7.16,0,0,0-1.9-.17L36,9.82a3.61,3.61,0,0,0-1,.12,0,0,0,0,0,0,.08Z" transform="translate(-5.34 -3.19)"/><path class="cls-4" d="M39.67,20.8a3.77,3.77,0,0,1-3,2.13,2.51,2.51,0,0,1-1.63-.36,2.16,2.16,0,0,1-.61-.63c-.2-.3-.24-.66-.42-1a.19.19,0,0,0-.36.1,2.28,2.28,0,0,0,.8,1.5,2.55,2.55,0,0,0,1.33.64,3.67,3.67,0,0,0,2.88-.91,3.55,3.55,0,0,0,1-1.5s0,0,0,0Z" transform="translate(-5.34 -3.19)"/><path class="cls-4" d="M34.11,23.59a4.5,4.5,0,0,1-1.32.09,2.08,2.08,0,0,1-1.2-.29,2.43,2.43,0,0,1-.69-2.15,1.35,1.35,0,0,1,.56-1,.21.21,0,0,0-.21-.37,2.17,2.17,0,0,0-.67,2.49,2.45,2.45,0,0,0,.66,1.16,1.83,1.83,0,0,0,1.27.42,3.21,3.21,0,0,0,1.62-.29s0-.07,0-.06Z" transform="translate(-5.34 -3.19)"/><path class="cls-4" d="M30.42,20.64a1.72,1.72,0,0,1-.6-.57,3.3,3.3,0,0,1-.37-1,3.26,3.26,0,0,1,.11-2,.93.93,0,0,1,.25-.36c.12-.11.28-.12.38-.23a.22.22,0,0,0-.09-.36c-.32-.11-.7.29-.85.53a2.49,2.49,0,0,0-.31,1.09,3.65,3.65,0,0,0,.56,2.39c.2.28.52.61.89.58a.06.06,0,0,0,0-.11Z" transform="translate(-5.34 -3.19)"/><path class="cls-4" d="M35.54,17.56c0-.53,0-1,0-1.58a2.13,2.13,0,0,1,.38-1.5.77.77,0,0,1,.34-.19c.13,0,.37,0,.46-.1a.11.11,0,0,0,0-.11c-.14-.22-.63,0-.8.08a1.21,1.21,0,0,0-.46.63,4.17,4.17,0,0,0-.1,1.86c0,.3.13.6.16.91,0,0,0,0,0,0Z" transform="translate(-5.34 -3.19)"/><path class="cls-4" d="M35.43,14.81a1.34,1.34,0,0,1-1.31.74,2,2,0,0,1-.78-.19,2.5,2.5,0,0,1-.35-.21,1.81,1.81,0,0,0-.3-.25.15.15,0,0,0-.21.17.64.64,0,0,0,.31.36,2.44,2.44,0,0,0,.41.24,2.26,2.26,0,0,0,1,.19,1.52,1.52,0,0,0,1.5-1c0-.13-.17-.22-.23-.09Z" transform="translate(-5.34 -3.19)"/></g><g id="Text"><path class="cls-5" d="M66.54,34.53a.42.42,0,0,1,.33.14l.95,1A4.46,4.46,0,0,1,66.08,37a6.65,6.65,0,0,1-4.81,0,5.27,5.27,0,0,1-1.76-1.23A5.51,5.51,0,0,1,58.4,34,6.91,6.91,0,0,1,58,31.59,7.23,7.23,0,0,1,58.19,30a6,6,0,0,1,.55-1.43,5.67,5.67,0,0,1,.86-1.18,5.32,5.32,0,0,1,1.15-.9,5.7,5.7,0,0,1,1.39-.56,6.38,6.38,0,0,1,1.6-.2A5.84,5.84,0,0,1,65,25.8a5,5,0,0,1,1.06.31,4.72,4.72,0,0,1,.92.48,4.58,4.58,0,0,1,.75.62l-.81,1.1a.62.62,0,0,1-.18.18.51.51,0,0,1-.3.08.69.69,0,0,1-.39-.14l-.48-.3a3.22,3.22,0,0,0-.71-.3,3.56,3.56,0,0,0-1.07-.14A3.44,3.44,0,0,0,62.4,28a2.79,2.79,0,0,0-1,.77,3.43,3.43,0,0,0-.68,1.22,5.21,5.21,0,0,0-.24,1.65,5,5,0,0,0,.26,1.66,3.71,3.71,0,0,0,.71,1.23,3,3,0,0,0,1,.76,3.27,3.27,0,0,0,1.29.26,5.6,5.6,0,0,0,.74,0,2.86,2.86,0,0,0,.61-.14,2.32,2.32,0,0,0,.53-.24,2.89,2.89,0,0,0,.51-.39l.18-.12A.52.52,0,0,1,66.54,34.53Z" transform="translate(-5.34 -3.19)"/><path class="cls-5" d="M76,35.43v1.94H69.17V25.81h2.39v9.62Z" transform="translate(-5.34 -3.19)"/><path class="cls-5" d="M88.31,31.59a6.46,6.46,0,0,1-.43,2.35,5.61,5.61,0,0,1-1.2,1.87,5.51,5.51,0,0,1-1.87,1.24,6.76,6.76,0,0,1-4.85,0,5.61,5.61,0,0,1-1.87-1.24,5.46,5.46,0,0,1-1.2-1.87,6.64,6.64,0,0,1,0-4.7,5.46,5.46,0,0,1,1.2-1.87A5.76,5.76,0,0,1,80,26.13a6.76,6.76,0,0,1,4.85,0,5.48,5.48,0,0,1,3.07,3.12A6.4,6.4,0,0,1,88.31,31.59Zm-2.45,0A5.13,5.13,0,0,0,85.62,30a3.51,3.51,0,0,0-.69-1.23A2.92,2.92,0,0,0,83.84,28a4.06,4.06,0,0,0-2.91,0,3,3,0,0,0-1.1.77A3.51,3.51,0,0,0,79.14,30a5.66,5.66,0,0,0,0,3.26,3.42,3.42,0,0,0,.69,1.23,3.08,3.08,0,0,0,1.1.77,4.2,4.2,0,0,0,2.91,0,3,3,0,0,0,1.09-.77,3.42,3.42,0,0,0,.69-1.23A5.13,5.13,0,0,0,85.86,31.59Z" transform="translate(-5.34 -3.19)"/><path class="cls-5" d="M94.79,35.46a2.69,2.69,0,0,0,1-.2,2.26,2.26,0,0,0,.78-.55,2.45,2.45,0,0,0,.48-.87,3.71,3.71,0,0,0,.17-1.15V25.81h2.39v6.88a5.27,5.27,0,0,1-.34,1.94,4.34,4.34,0,0,1-2.5,2.51,5.9,5.9,0,0,1-4.06,0,4.32,4.32,0,0,1-1.54-1,4.4,4.4,0,0,1-1-1.51,5.49,5.49,0,0,1-.33-1.94V25.81h2.39v6.88a3.72,3.72,0,0,0,.16,1.15,2.46,2.46,0,0,0,.49.87,2.09,2.09,0,0,0,.78.55A2.69,2.69,0,0,0,94.79,35.46Z" transform="translate(-5.34 -3.19)"/><path class="cls-5" d="M112.3,31.59a6.31,6.31,0,0,1-.42,2.33,5.37,5.37,0,0,1-1.21,1.83,5.5,5.5,0,0,1-1.86,1.19,6.53,6.53,0,0,1-2.43.43h-4.44V25.81h4.44a6.53,6.53,0,0,1,2.43.43,5.52,5.52,0,0,1,1.86,1.2,5.37,5.37,0,0,1,1.21,1.83A6.26,6.26,0,0,1,112.3,31.59Zm-2.45,0a5.24,5.24,0,0,0-.24-1.64,3.52,3.52,0,0,0-.68-1.22,3.16,3.16,0,0,0-1.09-.78,3.73,3.73,0,0,0-1.46-.27h-2V35.5h2a3.73,3.73,0,0,0,1.46-.27,3,3,0,0,0,1.09-.77,3.66,3.66,0,0,0,.68-1.23A5.19,5.19,0,0,0,109.85,31.59Z" transform="translate(-5.34 -3.19)"/><path class="cls-6" d="M59.54,42.59a6.93,6.93,0,0,1,2.05.27,4,4,0,0,1,1.42.78,3,3,0,0,1,.82,1.18,4.07,4.07,0,0,1,.27,1.49,4.21,4.21,0,0,1-.28,1.57A3.3,3.3,0,0,1,63,49.1a4,4,0,0,1-1.43.79,6.42,6.42,0,0,1-2,.28H58v4H55.63V42.59Zm0,5.75a2.2,2.2,0,0,0,1.64-.54,2,2,0,0,0,.52-1.49,2.2,2.2,0,0,0-.13-.78,1.58,1.58,0,0,0-.4-.61,1.89,1.89,0,0,0-.67-.38,3,3,0,0,0-1-.14H58v3.94Z" transform="translate(-5.34 -3.19)"/><path class="cls-6" d="M76.79,48.36a6.42,6.42,0,0,1-.42,2.35,5.54,5.54,0,0,1-1.21,1.87,5.47,5.47,0,0,1-1.86,1.24,6.76,6.76,0,0,1-4.85,0,5.48,5.48,0,0,1-3.08-3.11,6.76,6.76,0,0,1,0-4.69,5.48,5.48,0,0,1,3.08-3.11,6.76,6.76,0,0,1,4.85,0,5.47,5.47,0,0,1,1.86,1.24A5.64,5.64,0,0,1,76.37,46,6.4,6.4,0,0,1,76.79,48.36Zm-2.44,0a5.17,5.17,0,0,0-.24-1.63,3.38,3.38,0,0,0-.69-1.22,3,3,0,0,0-1.09-.78,4,4,0,0,0-1.46-.26,3.87,3.87,0,0,0-1.45.26,2.91,2.91,0,0,0-1.1.78,3.38,3.38,0,0,0-.69,1.22,5.69,5.69,0,0,0,0,3.27,3.38,3.38,0,0,0,.69,1.22,2.88,2.88,0,0,0,1.1.77,3.68,3.68,0,0,0,1.45.27A3.76,3.76,0,0,0,72.33,52a3,3,0,0,0,1.09-.77A3.38,3.38,0,0,0,74.11,50,5.19,5.19,0,0,0,74.35,48.36Z" transform="translate(-5.34 -3.19)"/><path class="cls-6" d="M82.45,42.59a6.93,6.93,0,0,1,2,.27,3.94,3.94,0,0,1,1.42.78,3,3,0,0,1,.83,1.18A4.06,4.06,0,0,1,87,46.31a4.42,4.42,0,0,1-.27,1.57,3.32,3.32,0,0,1-.85,1.22,4,4,0,0,1-1.42.79,6.49,6.49,0,0,1-2,.28H80.94v4H78.55V42.59Zm0,5.75a2.17,2.17,0,0,0,1.64-.54,2.05,2.05,0,0,0,.53-1.49,2.21,2.21,0,0,0-.14-.78,1.56,1.56,0,0,0-.39-.61,1.94,1.94,0,0,0-.68-.38,3,3,0,0,0-1-.14H80.94v3.94Z" transform="translate(-5.34 -3.19)"/><path class="cls-6" d="M94.8,44.8a1.08,1.08,0,0,1-.23.27.56.56,0,0,1-.3.08.79.79,0,0,1-.38-.12c-.13-.09-.29-.17-.47-.27a5.23,5.23,0,0,0-.62-.27,2.57,2.57,0,0,0-.82-.12,1.79,1.79,0,0,0-1.24.37,1.24,1.24,0,0,0-.42,1,.92.92,0,0,0,.23.63,2,2,0,0,0,.6.44,4.76,4.76,0,0,0,.84.32c.31.1.63.2,1,.32a8.09,8.09,0,0,1,1,.4,3.36,3.36,0,0,1,.85.58,2.8,2.8,0,0,1,.59.86,3,3,0,0,1,.23,1.23A3.82,3.82,0,0,1,95.3,52a3.35,3.35,0,0,1-.79,1.2,3.69,3.69,0,0,1-1.28.81,4.63,4.63,0,0,1-1.72.29,5.13,5.13,0,0,1-1.1-.11,6.33,6.33,0,0,1-1-.31,5.29,5.29,0,0,1-1-.48,3.74,3.74,0,0,1-.78-.62l.7-1.13a.93.93,0,0,1,.23-.21.56.56,0,0,1,.3-.08.86.86,0,0,1,.46.15l.55.36a4.85,4.85,0,0,0,.72.35,2.83,2.83,0,0,0,1,.16,2,2,0,0,0,1.3-.39,1.4,1.4,0,0,0,.45-1.14,1.1,1.1,0,0,0-.22-.71,1.75,1.75,0,0,0-.6-.45,4.23,4.23,0,0,0-.83-.31l-1-.29a8,8,0,0,1-1-.39,3,3,0,0,1-.84-.59,2.7,2.7,0,0,1-.59-.91,3.5,3.5,0,0,1-.23-1.34,3.18,3.18,0,0,1,.26-1.25,3.09,3.09,0,0,1,.75-1.08,4,4,0,0,1,1.21-.76A4.46,4.46,0,0,1,92,42.46a5.8,5.8,0,0,1,1.94.32,4.32,4.32,0,0,1,1.5.9Z" transform="translate(-5.34 -3.19)"/></g><g id="Doos"><path id="emmer" class="cls-6" d="M54.08,19.24l-4.54,36c-6.92,7.6-33.86,5.15-36.95,0l-5-35.4C22.48,20.25,38,20,54.08,19.24Z" transform="translate(-5.34 -3.19)"/><path class="cls-7" d="M9.46,20.82l-.69-1h-.6V20l5.13,36.09h0a7.56,7.56,0,0,0,1.14.79Z" transform="translate(-5.34 -3.19)"/><path class="cls-7" d="M12.26,20.92l-1.53-.74,4.7,37.16h0c.41.19.85.37,1.33.54Z" transform="translate(-5.34 -3.19)"/><path class="cls-7" d="M16.91,20.72l-2.62-.29,4,38c.81.23,1.67.44,2.57.62Z" transform="translate(-5.34 -3.19)"/><path class="cls-7" d="M22.72,20.7l-2.78-.33,2.83,39h0c.84.14,1.71.25,2.6.35Z" transform="translate(-5.34 -3.19)"/><path class="cls-7" d="M28.91,20.7l-2.6-.19,1.5,39.39a1.57,1.57,0,0,1,.32.05c.67,0,1.35.07,2,.09Z" transform="translate(-5.34 -3.19)"/><path class="cls-7" d="M35.14,19.92l-1.51,0-1,0,.23,40.07c.44,0,1.58,0,2,0Z" transform="translate(-5.34 -3.19)"/><path class="cls-7" d="M37.88,20.05l-1.17,39.8c.66-.06,1.31-.14,1.95-.22l1.71-39.84-3,.1Z" transform="translate(-5.34 -3.19)"/><path class="cls-7" d="M40.34,59.36c.59-.11,1.18-.24,1.75-.37l2.68-39.15-2.42,0Z" transform="translate(-5.34 -3.19)"/><path class="cls-7" d="M43.7,58.54c.61-.19,1.19-.4,1.74-.62L49,19.77c-.41,0-2,0-2.36.05Z" transform="translate(-5.34 -3.19)"/><path class="cls-7" d="M47.17,57.11c.18-.12,1.23-.84,1.39-1l4.22-36.85c-.18,0-1.77,0-2,0Z" transform="translate(-5.34 -3.19)"/><path class="cls-6" d="M55.32,17.94c.35,1-1.51,1.57-4.94,2-5.11.67-10.46.66-15.92.94-11.36.58-24.52.05-28-1.54-.5-.71-.31-1.09.56-1.15,3.58,1.14,9.65,1.41,17,1.25,24.53.19,26.8-.88,30.36-1.71C54.74,17.56,55.12,17.53,55.32,17.94Z" transform="translate(-5.34 -3.19)"/></g></g></svg>